<svg width="664" height="664" viewBox="0 0 664 664" fill="none" xmlns="http://www.w3.org/2000/svg">
<path d="M311.952 76.6812L201.974 140.166L311.952 203.665L421.931 140.166L311.952 76.6812Z" fill="#08F7BC"/>
<path d="M311.952 203.666V330.664L201.974 267.165V140.167L311.952 203.666Z" fill="#17E5AF"/>
<path d="M421.931 140.167L311.953 203.666V330.664L421.931 267.165V140.167Z" fill="#05D19C"/>
<path d="M174.479 156.044L311.952 235.421L449.425 156.044L559.404 219.543L311.952 362.405L64.5 219.543L174.479 156.044Z" fill="#EFF3F6"/>
<path d="M174.48 568.767L311.954 489.404L174.48 410.026V568.767Z" fill="#B5C4D1"/>
<path d="M450.567 410.025L311.953 489.402L450.567 568.766V410.025Z" fill="#DAE2E8"/>
<path d="M311.952 394.162L201.974 457.647L311.952 521.146L421.931 457.647L311.952 394.162Z" fill="#0082FF"/>
<path d="M311.952 521.146V648.144L201.974 584.645V457.647L311.952 521.146Z" fill="#0075D6"/>
<path d="M421.931 457.647L311.953 521.146V648.144L421.931 584.645V457.647Z" fill="#0462AF"/>
<path d="M174.479 568.766V410.025L311.952 489.402V362.404L64.5 219.542V505.281L174.479 568.766Z" fill="#DAE2E8"/>
<path d="M311.953 489.402L449.426 410.025V568.766L559.405 505.281V219.542L311.953 362.404V489.402Z" fill="#B5C4D1"/>
<path d="M421.222 139.786H202.849V4.15039H421.222V139.786Z" fill="url(#paint0_linear_661_33202)"/>
<defs>
<linearGradient id="paint0_linear_661_33202" x1="312.035" y1="138.957" x2="312.035" y2="9.95616" gradientUnits="userSpaceOnUse">
<stop stop-color="#08F7BC"/>
<stop offset="1" stop-color="#08F7BC" stop-opacity="0"/>
</linearGradient>
</defs>
</svg>
