<svg width="157" height="156" viewBox="0 0 157 156" fill="none" xmlns="http://www.w3.org/2000/svg">
<g opacity="0.5">
<path d="M54.6557 31.2285L35.6465 42.204L54.6557 53.177L73.6626 42.204L54.6557 31.2285Z" fill="#EFF3F6"/>
<path d="M54.6553 53.1762V75.1271L73.6621 64.1517V42.2031L54.6553 53.1762Z" fill="#B5C4D1"/>
<path d="M54.6557 53.1762L35.6465 42.2031V64.1517L54.6557 75.1271V53.1762Z" fill="#DAE2E8"/>
</g>
<g opacity="0.8">
<path d="M78.3559 45.0645L59.3467 56.0399L78.3559 67.013L97.3651 56.0399L78.3559 45.0645Z" fill="#EFF3F6"/>
<path d="M78.3555 67.0121V88.9607L97.3647 77.9876V56.0391L78.3555 67.0121Z" fill="#B5C4D1"/>
<path d="M78.3559 67.0121L59.3467 56.0391V77.9876L78.3559 88.9607V67.0121Z" fill="#DAE2E8"/>
</g>
<path d="M102.105 58.8203L83.0957 69.7958L102.105 80.7712L121.114 69.7958L102.105 58.8203Z" fill="#08F7BC"/>
<path d="M102.105 80.7704V102.721L121.115 91.7458V69.7949L102.105 80.7704Z" fill="#05D19C"/>
<path d="M102.105 80.7704L83.0957 69.7949V91.7458L102.105 102.721V80.7704Z" fill="#17E5AF"/>
<path d="M121.114 69.7959H83.0957V25.8965H121.114V69.7959Z" fill="url(#paint0_linear_3351_21850)"/>
<g opacity="0.8">
<path d="M78.3559 72.5L59.3467 83.4755L78.3559 94.4509L97.3651 83.4755L78.3559 72.5Z" fill="#EFF3F6"/>
<path d="M78.3555 94.4501V116.399L97.3647 105.423V83.4746L78.3555 94.4501Z" fill="#B5C4D1"/>
<path d="M78.3559 94.4501L59.3467 83.4746V105.423L78.3559 116.399V94.4501Z" fill="#DAE2E8"/>
</g>
<g opacity="0.5">
<path d="M54.6557 86.2578L35.6465 97.2333L54.6557 108.209L73.6626 97.2333L54.6557 86.2578Z" fill="#EFF3F6"/>
<path d="M54.6553 108.208V130.156L73.6621 119.181V97.2324L54.6553 108.208Z" fill="#B5C4D1"/>
<path d="M54.6557 108.208L35.6465 97.2324V119.181L54.6557 130.156V108.208Z" fill="#DAE2E8"/>
</g>
<defs>
<linearGradient id="paint0_linear_3351_21850" x1="102.105" y1="69.5274" x2="102.105" y2="27.7736" gradientUnits="userSpaceOnUse">
<stop stop-color="#08F7BC"/>
<stop offset="1" stop-color="#08F7BC" stop-opacity="0"/>
</linearGradient>
</defs>
</svg>
