<svg width="76" height="54" viewBox="0 0 76 54" fill="none" xmlns="http://www.w3.org/2000/svg">
<path d="M15.3144 0L0 8.83219L15.3144 17.6644L30.6287 8.83219L15.3144 0Z" fill="#08F7BC"/>
<path d="M15.3144 17.6642V35.3286L0 26.4964V8.83203L15.3144 17.6642Z" fill="#17E5AF"/>
<path d="M30.6288 8.83203L15.3145 17.6642V35.3286L30.6288 26.4964V8.83203Z" fill="#05D19C"/>
<path d="M15.3144 18.0049L0 26.8371L15.3144 35.6693L30.6287 26.8371L15.3144 18.0049Z" fill="#08F7BC"/>
<path d="M15.3144 35.6691V53.3335L0 44.5013V26.8369L15.3144 35.6691Z" fill="#17E5AF"/>
<path d="M30.6288 26.8369L15.3145 35.6691V53.3335L30.6288 44.5013V26.8369Z" fill="#05D19C"/>
<path d="M60.6855 9.3623L45.3711 18.1945L60.6855 27.0267L75.9998 18.1945L60.6855 9.3623Z" fill="#08F7BC"/>
<path d="M60.6855 27.0265V44.6909L45.3711 35.8587V18.1943L60.6855 27.0265Z" fill="#17E5AF"/>
<path d="M75.9999 18.1943L60.6855 27.0265V44.6909L75.9999 35.8587V18.1943Z" fill="#05D19C"/>
<path d="M45.5624 18.0049L30.248 26.8371L45.5624 35.6693L60.8768 26.8371L45.5624 18.0049Z" fill="#08F7BC"/>
<path d="M45.5624 35.6691V53.3335L30.248 44.5013V26.8369L45.5624 35.6691Z" fill="#17E5AF"/>
<path d="M60.8769 26.8369L45.5625 35.6691V53.3335L60.8769 44.5013V26.8369Z" fill="#05D19C"/>
</svg>
