<svg width="15" height="11" viewBox="0 0 15 11" fill="none" xmlns="http://www.w3.org/2000/svg">
	<path fill-rule="evenodd" clip-rule="evenodd" d="M12.9545 1.33431C11.7167 0.26528 9.8538 0.0389661 9.57946 0.0056384L9.57945 0.00563792C9.55882 0.0031313 9.54717 0.00171646 9.54545 0.00111691C9.34568 -0.00925072 9.21545 0.0678553 9.20455 0.334416C9.44802 0.42658 9.731 0.52095 10.0362 0.622728C10.6267 0.819642 11.3003 1.04428 11.9318 1.33431C12.0811 1.57616 12.1282 1.77569 11.9318 2.00091C11.972 2.02662 11.865 2.08073 11.5909 2.00091C9.94364 1.02289 7.89409 0.97216 7.5 1.00102C7.10591 0.97216 5.05568 1.02289 3.40909 2.00091C3.26318 2.12672 3.06273 2.07938 3.06818 2.00091C2.87182 1.77569 2.91955 1.57683 3.06818 1.33431C3.69987 1.04487 4.37301 0.820156 4.96313 0.623159C5.26856 0.521199 5.55176 0.426663 5.79545 0.334416C5.78455 0.0678553 5.655 -0.0106035 5.45455 0.00111691C5.45287 0.00172044 5.44112 0.00315014 5.42027 0.00568802C5.14504 0.0391904 3.28328 0.265809 2.04545 1.33431C1.37386 1.86497 0 5.54982 0 8.6669C0 8.71013 0.00180063 8.74503 0.00353029 8.77856C0.00679286 8.84181 0.00980294 8.90016 0 9.0002C0.991364 10.5482 3.57818 10.9811 4.09091 11C4.1671 11 4.22852 10.9922 4.27808 10.9859C4.35315 10.9763 4.40102 10.9703 4.43182 11L5.11364 10.0001C3.43023 9.64118 2.60864 8.94113 2.72727 9.0002C2.43546 8.78844 2.41407 8.59021 2.38886 8.35665L2.38636 8.3336C2.65159 8.30941 2.85682 8.29655 3.06818 8.3336C3.01159 8.43183 4.52455 9.70543 7.5 9.6668C10.4809 9.70543 11.9939 8.42642 11.9318 8.3336C12.1439 8.29723 12.3498 8.30941 12.6136 8.3336L12.6112 8.35639C12.586 8.59066 12.5647 8.78835 12.2727 9.0002C12.392 8.94113 11.5705 9.6405 9.88636 10.0001L10.5682 11C10.5996 10.9696 10.6481 10.9759 10.724 10.9856L10.7241 10.9856C10.7733 10.9919 10.834 10.9997 10.9091 11C11.4225 10.9811 14.0093 10.5482 15 9.0002C14.9902 8.89972 14.9932 8.8415 14.9965 8.7784C14.9982 8.74495 15 8.71013 15 8.6669C15 5.54982 13.6261 1.86497 12.9545 1.33431ZM5.17857 7.33371C4.31004 7.33371 3.75 6.78622 3.75 6.11161C3.75 5.43699 4.30929 4.88951 5.17857 4.88951C5.69071 4.88951 6.25 5.43699 6.25 6.11161C6.25 6.78622 5.69071 7.33371 5.17857 7.33371ZM8.125 6.11161C8.125 6.78622 8.68504 7.33371 9.19643 7.33371C10.065 7.33371 10.625 6.78622 10.625 6.11161C10.625 5.43699 10.065 4.88951 9.19643 4.88951C8.68429 4.88951 8.125 5.43699 8.125 6.11161Z" fill="#4B6378" />
</svg>
