<svg width="12" height="12" viewBox="0 0 12 12" fill="none" xmlns="http://www.w3.org/2000/svg">
	<path fill-rule="evenodd" clip-rule="evenodd" d="M1.42857 0H10.5714C11.36 0 12 0.64 12 1.42857V10.5714C12 11.36 11.36 12 10.5714 12H1.42857C0.64 12 0 11.36 0 10.5714V1.42857C0 0.64 0.64 0 1.42857 0ZM3.71429 10V4.57143H2V10H3.71429ZM2 2.85714C2 2.59143 2.34286 2.15092 2.85714 2.15092C3.37143 2.15092 3.69429 2.59143 3.71429 2.85714C3.71429 3.39143 3.39429 3.71429 2.85714 3.71429C2.34286 3.71429 2 3.39143 2 2.85714ZM8.28571 10H10V6.85714C10 5.35143 9.08 4.57143 8 4.57143C6.83714 4.57143 6.28571 5.30286 6.28571 5.42857V4.57143H4.57143V10H6.28571V7.14286C6.28571 6.57714 6.57143 5.98857 7.14286 6H7.42857C8 6 8.28571 6.57143 8.28571 7.14286V10Z" fill="#728DA5" />
</svg>
