<svg width="15" height="12" viewBox="0 0 15 12" fill="none" xmlns="http://www.w3.org/2000/svg">
	<path d="M15 1.42016C14.447 1.66184 13.8543 1.82411 13.2312 1.89777C13.8672 1.52259 14.3559 0.928742 14.585 0.222116C13.9911 0.568524 13.3306 0.820562 12.6303 0.956363C12.0692 0.367124 11.2696 0 10.3846 0C8.68483 0 7.30652 1.35571 7.30652 3.02906C7.30652 3.26614 7.33458 3.49746 7.38719 3.71957C4.82932 3.59298 2.56254 2.38688 1.04396 0.553563C0.778583 1.0024 0.627777 1.52259 0.627777 2.0773C0.627777 3.12803 1.17021 4.05562 1.99673 4.59998C1.4917 4.58387 1.01707 4.44692 0.602058 4.2202C0.602058 4.23286 0.602058 4.24552 0.602058 4.25818C0.602058 5.72667 1.66355 6.95003 3.06991 7.22969C2.81272 7.29874 2.54033 7.33557 2.25976 7.33557C2.06102 7.33557 1.86813 7.31716 1.67992 7.28033C2.07271 8.48298 3.20902 9.36108 4.55459 9.38525C3.50245 10.1978 2.17559 10.6811 0.73299 10.6811C0.483984 10.6811 0.239654 10.6673 0 10.6385C1.36077 11.4994 2.97872 12 4.71709 12C10.3776 12 13.4732 7.38391 13.4732 3.38122C13.4732 3.25002 13.4697 3.11768 13.465 2.98878C14.0659 2.56181 14.5873 2.02781 15 1.42016Z" fill="white" />
</svg>
