<?xml version="1.0" encoding="UTF-8"?>
<svg width="24.1px" height="24.1px" viewBox="0 0 24.1 24.1" version="1.1" xmlns="http://www.w3.org/2000/svg" xmlns:xlink="http://www.w3.org/1999/xlink">
    <title>WalletConnect</title>
    <g id="Final" stroke="none" stroke-width="1" fill="none" fill-rule="evenodd">
        <g id="04-Onboarding---Connect-wallet" transform="translate(-522.950000, -461.950000)" fill-rule="nonzero">
            <g id="WalletConnect" transform="translate(523.000000, 462.000000)">
                <circle id="Oval" stroke="#66B1FF" stroke-width="0.1" fill="#3396FF" cx="12" cy="12" r="12"></circle>
                <path d="M7.34043833,8.91292116 C9.91089901,6.39839565 14.089101,6.39839565 16.6691889,8.91292116 L16.9772591,9.21158128 C17.1024126,9.33682584 17.1024126,9.53914399 16.9772591,9.66438855 L15.9182678,10.6952477 C15.8508774,10.7626871 15.7449783,10.7626871 15.6872151,10.6952477 L15.2636186,10.2809772 C13.4633334,8.52755326 10.555921,8.52755326 8.75563578,10.2809772 L8.30315769,10.7241503 C8.23576733,10.7915896 8.1298682,10.7915896 8.07210504,10.7241503 L7.01311375,9.69329114 C6.88796024,9.56804658 6.88796024,9.36572843 7.01311375,9.24048387 L7.35006553,8.91292116 L7.34043833,8.91292116 Z M18.8545618,11.051713 L19.7980268,11.9765959 C19.9231803,12.1018405 19.9231803,12.3041586 19.7980268,12.4294032 L15.5428072,16.5817423 C15.4176537,16.7069868 15.2058554,16.7069868 15.0807019,16.5817423 L12.0577632,13.6336779 C12.0288816,13.6047753 11.9711184,13.6047753 11.9422368,13.6336779 L8.91929807,16.5817423 C8.79414456,16.7069868 8.5823463,16.7069868 8.45719278,16.5817423 L4.20197324,12.4294032 C4.07681973,12.3041586 4.07681973,12.1018405 4.20197324,11.9765959 L5.14543821,11.051713 C5.27059173,10.9264684 5.48238998,10.9264684 5.6075435,11.051713 L8.63048227,13.9997774 C8.65936385,14.02868 8.71712701,14.02868 8.74600859,13.9997774 L11.7689474,11.051713 C11.8941009,10.9264684 12.1058991,10.9264684 12.2310526,11.051713 L15.2539914,13.9997774 C15.282873,14.02868 15.3406362,14.02868 15.3695177,13.9997774 L18.3924565,11.051713 C18.51761,10.9264684 18.7294083,10.9264684 18.8545618,11.051713 L18.8545618,11.051713 Z" id="Shape" fill="#FFFFFF"></path>
            </g>
        </g>
    </g>
</svg>