<?xml version="1.0" encoding="UTF-8"?>
<svg width="24.0978516px" height="22.0969088px" viewBox="0 0 24.0978516 22.0969088" version="1.1" xmlns="http://www.w3.org/2000/svg" xmlns:xlink="http://www.w3.org/1999/xlink">
    <title>MetaMask</title>
    <g id="Final" stroke="none" stroke-width="1" fill="none" fill-rule="evenodd" stroke-linecap="round" stroke-linejoin="round">
        <g id="04-Onboarding---Connect-wallet" transform="translate(-522.951074, -356.953091)" fill-rule="nonzero" stroke-width="0.1">
            <g id="MetaMask" transform="translate(523.000000, 357.000000)">
                <polygon id="Path" stroke="#E2761B" fill="#E2761B" points="22.8047059 0 13.44 6.87732657 15.1717647 2.81979695"></polygon>
                <path d="M1.18588235,0 L10.4752941,6.94247039 L8.82823529,2.81979695 L1.18588235,0 Z M19.4352941,15.9416244 L16.9411765,19.7199662 L22.2776471,21.1717428 L23.8117647,16.0253807 L19.4352941,15.9416244 Z M0.197647059,16.0253807 L1.72235294,21.1717428 L7.05882353,19.7199662 L4.56470588,15.9416244 L0.197647059,16.0253807 Z" id="Shape" stroke="#E4761B" fill="#E4761B"></path>
                <path d="M6.75764706,9.55752961 L5.27058824,11.7817259 L10.5694118,12.0143824 L10.3811765,6.38409475 L6.75764706,9.55752961 Z M17.2329412,9.55752961 L13.5623529,6.31895093 L13.44,12.0143824 L18.7294118,11.7817259 L17.2329412,9.55752961 Z M7.05882353,19.7199662 L10.24,18.1844332 L7.49176471,16.0626058 L7.05882353,19.7199662 Z M13.7505882,18.1844332 L16.9411765,19.7199662 L16.4988235,16.0626058 L13.7505882,18.1844332 Z" id="Shape" stroke="#E4761B" fill="#E4761B"></path>
                <path d="M16.9411765,19.7199662 L13.7505882,18.1844332 L14.0047059,20.2411168 L13.9764706,21.106599 L16.9411765,19.7199662 Z M7.05882353,19.7199662 L10.0235294,21.106599 L10.0047059,20.2411168 L10.24,18.1844332 L7.05882353,19.7199662 Z" id="Shape" stroke="#D7C1B3" fill="#D7C1B3"></path>
                <path d="M10.0705882,14.7038917 L7.41647059,13.9314721 L9.28941176,13.0846024 L10.0705882,14.7038917 Z M13.92,14.7038917 L14.7011765,13.0846024 L16.5835294,13.9314721 L13.92,14.7038917 Z" id="Shape" stroke="#233447" fill="#233447"></path>
                <path d="M7.05882353,19.7199662 L7.51058824,15.9416244 L4.56470588,16.0253807 L7.05882353,19.7199662 Z M16.4894118,15.9416244 L16.9411765,19.7199662 L19.4352941,16.0253807 L16.4894118,15.9416244 Z M18.7294118,11.7817259 L13.44,12.0143824 L13.9294118,14.7038917 L14.7105882,13.0846024 L16.5929412,13.9314721 L18.7294118,11.7817259 Z M7.41647059,13.9314721 L9.29882353,13.0846024 L10.0705882,14.7038917 L10.5694118,12.0143824 L5.27058824,11.7817259 L7.41647059,13.9314721 Z" id="Shape" stroke="#CD6116" fill="#CD6116"></path>
                <path d="M5.27058824,11.7817259 L7.49176471,16.0626058 L7.41647059,13.9314721 L5.27058824,11.7817259 Z M16.5929412,13.9314721 L16.4988235,16.0626058 L18.7294118,11.7817259 L16.5929412,13.9314721 Z M10.5694118,12.0143824 L10.0705882,14.7038917 L10.6917647,17.8773266 L10.8329412,13.6988156 L10.5694118,12.0143824 Z M13.44,12.0143824 L13.1858824,13.6895093 L13.2988235,17.8773266 L13.9294118,14.7038917 L13.44,12.0143824 Z" id="Shape" stroke="#E4751F" fill="#E4751F"></path>
                <path d="M13.9294118,14.7038917 L13.2988235,17.8773266 L13.7505882,18.1844332 L16.4988235,16.0626058 L16.5929412,13.9314721 L13.9294118,14.7038917 Z M7.41647059,13.9314721 L7.49176471,16.0626058 L10.24,18.1844332 L10.6917647,17.8773266 L10.0705882,14.7038917 L7.41647059,13.9314721 Z" id="Shape" stroke="#F6851B" fill="#F6851B"></path>
                <polygon id="Path" stroke="#C0AD9E" fill="#C0AD9E" points="13.9764706 21.106599 14.0047059 20.2411168 13.7694118 20.036379 10.2211765 20.036379 10.0047059 20.2411168 10.0235294 21.106599 7.05882353 19.7199662 8.09411765 20.5575296 10.1929412 22 13.7976471 22 15.9058824 20.5575296 16.9411765 19.7199662"></polygon>
                <polygon id="Path" stroke="#161616" fill="#161616" points="13.7505882 18.1844332 13.2988235 17.8773266 10.6917647 17.8773266 10.24 18.1844332 10.0047059 20.2411168 10.2211765 20.036379 13.7694118 20.036379 14.0047059 20.2411168"></polygon>
                <path d="M23.2,7.32402707 L24,3.52707276 L22.8047059,0 L13.7505882,6.64467005 L17.2329412,9.55752961 L22.1552941,10.9813875 L23.2470588,9.7250423 L22.7764706,9.39001692 L23.5294118,8.7106599 L22.9458824,8.26395939 L23.6988235,7.6962775 L23.2,7.32402707 Z M0,3.52707276 L0.8,7.32402707 L0.291764706,7.6962775 L1.04470588,8.26395939 L0.470588235,8.7106599 L1.22352941,9.39001692 L0.752941176,9.7250423 L1.83529412,10.9813875 L6.75764706,9.55752961 L10.24,6.64467005 L1.18588235,0 L0,3.52707276 Z" id="Shape" stroke="#763D16" fill="#763D16"></path>
                <path d="M22.1552941,10.9813875 L17.2329412,9.55752961 L18.7294118,11.7817259 L16.4988235,16.0626058 L19.4352941,16.0253807 L23.8117647,16.0253807 L22.1552941,10.9813875 Z M6.75764706,9.55752961 L1.83529412,10.9813875 L0.197647059,16.0253807 L4.56470588,16.0253807 L7.49176471,16.0626058 L5.27058824,11.7817259 L6.75764706,9.55752961 Z M13.44,12.0143824 L13.7505882,6.64467005 L15.1811765,2.81979695 L8.82823529,2.81979695 L10.24,6.64467005 L10.5694118,12.0143824 L10.6823529,13.7081218 L10.6917647,17.8773266 L13.2988235,17.8773266 L13.3176471,13.7081218 L13.44,12.0143824 Z" id="Shape" stroke="#F6851B" fill="#F6851B"></path>
            </g>
        </g>
    </g>
</svg>