<?xml version="1.0" encoding="UTF-8"?>
<svg width="24px" height="24px" viewBox="0 0 24 24" version="1.1" xmlns="http://www.w3.org/2000/svg" xmlns:xlink="http://www.w3.org/1999/xlink">
    <title>Coinbase</title>
    <g id="Final" stroke="none" stroke-width="1" fill="none" fill-rule="evenodd">
        <g id="04-Onboarding---Connect-wallet" transform="translate(-523.000000, -407.000000)" fill-rule="nonzero">
            <g id="Coinbase" transform="translate(523.000000, 407.000000)">
                <circle id="Oval" fill="#0052FF" cx="12" cy="12" r="12"></circle>
                <path d="M12.3880952,8.19467634 C13.8233333,8.19467634 14.9619048,9.06608259 15.3942857,10.361942 L18.2857143,10.361942 C17.7619048,7.59139509 15.4397619,5.71428571 12.4111905,5.71428571 C8.97190476,5.71428571 6.28571429,8.28420759 6.28571429,11.7257701 C6.28571429,15.1673326 8.9047619,17.7142857 12.4111905,17.7142857 C15.3719048,17.7142857 17.7402381,15.8371763 18.2645238,13.0436607 L15.3940476,13.0436607 C14.9840476,14.3397545 13.8464286,15.2338951 12.4102381,15.2338951 C10.4285714,15.2338951 9.0397619,13.7364732 9.0397619,11.7257701 C9.04071429,9.69209821 10.4071429,8.19467634 12.3880952,8.19467634 Z" id="Path" fill="#FFFFFF"></path>
            </g>
        </g>
    </g>
</svg>