<svg width="61" height="29" viewBox="0 0 61 29" fill="none" xmlns="http://www.w3.org/2000/svg">
<path d="M0 0H4.24167L10 11.6397L15.7583 0H20V28.9914H16V8.20559L11.0833 18.1455H8.925L4 8.20559V29H0V0Z" fill="white"/>
<path d="M24 12L29.7778 0H34.2222L40 12V16H35.5556V13.0185L32.0463 5.63889H31.9537L28.4444 13.0185V16H24V12Z" fill="white"/>
<path fill-rule="evenodd" clip-rule="evenodd" d="M42 21.5019V7.45492C42 3.3133 45.5125 0 49.7653 0H53.2347C57.5306 0 61 3.3133 61 7.45492V21.5019C61 25.6004 57.5306 29 53.2347 29H49.7653C45.5125 29 42 25.6004 42 21.5019ZM49.7653 24.8152H53.2347C53.7685 24.8152 54.3108 24.6944 54.7671 24.4874L46.0893 10.3195V21.5019C46.0893 23.3225 47.7852 24.8152 49.7653 24.8152ZM56.9107 20.0297V20.0524L56.9193 20.0437L56.9107 20.0297ZM56.9107 7.45492V20.0297L47.5786 4.76287C48.1985 4.39185 48.9388 4.14162 49.7653 4.14162H53.2347C55.3009 4.14162 56.9107 5.59119 56.9107 7.45492Z" fill="white"/>
</svg>
