<svg width="42" height="42" viewBox="0 0 42 42" fill="none" xmlns="http://www.w3.org/2000/svg">
<rect width="42" height="42" fill="#000D0A"/>
<path d="M18.585 29.6569H20.5344V16.5527L18.585 19.9994V29.6569Z" fill="white"/>
<path d="M18.0533 13.0156L13.793 20.5481V22.1026V23.0882H15.7423L15.7425 21.0468L18.5854 16.0204V16.0339L20.2925 13.0156H18.0533Z" fill="white"/>
<path d="M25.4508 16.6913L27.9134 21.0454V23.0865H29.8629V20.526L26.8829 15.2573C26.8852 15.2561 26.8877 15.2551 26.89 15.254L25.9245 13.5469C25.3282 13.8538 24.8009 14.2774 24.373 14.7887L25.45 16.6928L25.4508 16.6913Z" fill="white"/>
<path d="M29.5916 13H28.1853C28.0774 13 27.9707 13.0047 27.8646 13.0115L28.9679 14.9623H29.5916C31.265 14.9623 32.6264 16.3326 32.6264 18.017V24.6497C32.6264 26.334 31.265 27.7044 29.5916 27.7044H28.1853C26.5119 27.7044 25.1506 26.334 25.1506 24.6497V20.13L23.3262 16.9045C23.2453 17.2626 23.2012 17.6346 23.2012 18.017V24.6497C23.2012 27.416 25.4371 29.6667 28.1853 29.6667H29.5916C32.3399 29.6667 34.5758 27.416 34.5758 24.6497V18.017C34.5758 15.2507 32.3399 13 29.5916 13Z" fill="white"/>
<path d="M11.4929 13.0156H9V29.6575H10.9494V16.0206L12.5296 18.8144L13.6512 16.8314L11.4929 13.0156Z" fill="white"/>
</svg>
