<svg width="34" height="22" viewBox="0 0 34 22" fill="none" xmlns="http://www.w3.org/2000/svg">
<g clip-path="url(#clip0_5711_49918)">
<mask id="mask0_5711_49918" style="mask-type:luminance" maskUnits="userSpaceOnUse" x="0" y="0" width="34" height="22">
<path d="M33.7599 0H0V22H33.7599V0Z" fill="white"/>
</mask>
<g mask="url(#mask0_5711_49918)">
<path d="M12.6523 21.987H15.2256V4.68945L12.6523 9.23909V21.987Z" fill="white"/>
<path d="M11.9488 0.0200195L6.3252 9.96285V12.0148V13.3158H8.89836L8.89853 10.6211L12.6512 3.98636V4.00412L14.9046 0.0200195H11.9488Z" fill="white"/>
<path d="M21.7161 4.87428L24.9668 10.6216V13.316H27.5401V9.93604L23.6064 2.98135C23.6096 2.97985 23.6128 2.97853 23.6159 2.97703L22.3414 0.723633C21.5542 1.12875 20.8582 1.68799 20.2935 2.36283L21.7151 4.87627L21.7161 4.87428Z" fill="white"/>
<path d="M27.1805 0H25.3242C25.1818 0 25.0409 0.00616932 24.9008 0.0151804L26.3571 2.59022H27.1805C29.3894 2.59022 31.1865 4.39909 31.1865 6.62246V15.3776C31.1865 17.6009 29.3894 19.4098 27.1805 19.4098H25.3242C23.1153 19.4098 21.3183 17.6009 21.3183 15.3776V9.41166L18.9102 5.15395C18.8034 5.62666 18.7451 6.11768 18.7451 6.62246V15.3776C18.7451 19.0291 21.6965 22 25.3242 22H27.1805C30.8083 22 33.7597 19.0291 33.7597 15.3776V6.62246C33.7597 2.97087 30.8083 0 27.1805 0Z" fill="white"/>
<path d="M3.29069 0.0200195H0V21.9872H2.57323V3.98663L4.65909 7.67444L6.13959 5.05688L3.29069 0.0200195Z" fill="white"/>
</g>
</g>
<defs>
<clipPath id="clip0_5711_49918">
<rect width="34" height="22" fill="white"/>
</clipPath>
</defs>
</svg>
