<svg width="34" height="22" viewBox="0 0 34 22" fill="none" xmlns="http://www.w3.org/2000/svg">
<mask id="mask0_5711_46820" style="mask-type:luminance" maskUnits="userSpaceOnUse" x="0" y="0" width="34" height="22">
<path d="M33.7599 0H0V22H33.7599V0Z" fill="white"/>
</mask>
<g mask="url(#mask0_5711_46820)">
<path d="M12.6526 21.987H15.2258V4.68945L12.6526 9.23909V21.987Z" fill="white"/>
<path d="M11.9488 0.0200195L6.3252 9.96285V12.0148V13.3158H8.89836L8.89853 10.6211L12.6512 3.98636V4.00412L14.9046 0.0200195H11.9488Z" fill="white"/>
<path d="M21.7159 4.87428L24.9665 10.6216V13.316H27.5398V9.93604L23.6062 2.98135C23.6093 2.97985 23.6125 2.97853 23.6156 2.97703L22.3412 0.723633C21.554 1.12875 20.858 1.68799 20.2932 2.36283L21.7148 4.87627L21.7159 4.87428Z" fill="white"/>
<path d="M27.1807 0H25.3244C25.182 0 25.0411 0.00616932 24.901 0.0151804L26.3574 2.59022H27.1807C29.3896 2.59022 31.1867 4.39909 31.1867 6.62246V15.3776C31.1867 17.6009 29.3896 19.4098 27.1807 19.4098H25.3244C23.1155 19.4098 21.3186 17.6009 21.3186 15.3776V9.41166L18.9104 5.15395C18.8036 5.62666 18.7454 6.11768 18.7454 6.62246V15.3776C18.7454 19.0291 21.6967 22 25.3244 22H27.1807C30.8085 22 33.7599 19.0291 33.7599 15.3776V6.62246C33.7599 2.97087 30.8085 0 27.1807 0Z" fill="white"/>
<path d="M3.29069 0.0200195H0V21.9872H2.57323V3.98663L4.65909 7.67444L6.13959 5.05688L3.29069 0.0200195Z" fill="white"/>
</g>
</svg>
