<svg width="128" height="128" viewBox="0 0 128 128" fill="none" xmlns="http://www.w3.org/2000/svg">
<path d="M120.12 63.6H106.34C102.23 63.6 98.89 66.93 98.89 71.05V91.04C98.89 95.15 95.5599 98.49 91.4399 98.49H36.6299C32.5199 98.49 29.1799 101.82 29.1799 105.94V119.72C29.1799 123.83 32.5099 127.17 36.6299 127.17H94.6099C98.7199 127.17 102.01 123.84 102.01 119.72V108.67C102.01 104.56 105.34 101.64 109.46 101.64H120.11C124.22 101.64 127.56 98.31 127.56 94.19V70.97C127.56 66.86 124.23 63.61 120.11 63.61L120.12 63.6Z" fill="white"/>
<path d="M29.19 36.24C29.19 32.13 32.52 28.79 36.64 28.79H91.41C95.52 28.79 98.86 25.46 98.86 21.34V7.56C98.86 3.45 95.53 0.110001 91.41 0.110001H33.46C29.35 0.110001 26.01 3.44 26.01 7.56V18.17C26.01 22.28 22.68 25.62 18.56 25.62H7.96002C3.85002 25.62 0.51001 28.95 0.51001 33.07V56.31C0.51001 60.42 3.85997 63.59 7.96997 63.59H21.75C25.86 63.59 29.2 60.26 29.2 56.14V36.23L29.19 36.24Z" fill="white"/>
<path d="M70.8 49.12H57.56C53.2467 49.12 49.75 52.6166 49.75 56.93V70.17C49.75 74.4833 53.2467 77.98 57.56 77.98H70.8C75.1133 77.98 78.61 74.4833 78.61 70.17V56.93C78.61 52.6166 75.1133 49.12 70.8 49.12Z" fill="white"/>
</svg>
