<svg width="37" height="16" viewBox="0 0 37 16" fill="none" xmlns="http://www.w3.org/2000/svg">
<path fill-rule="evenodd" clip-rule="evenodd" d="M14.8006 8.11254V6.08435L17.8449 0H20.1866L23.231 6.08435V8.11254H20.8893V6.6028L19.0391 2.86192H18.9924L17.1425 6.6028V8.11254H14.8006ZM30.6304 16C28.2186 16 26.2279 14.1521 26.2279 11.9211V4.28163C26.2279 2.02817 28.2186 0.225458 30.6304 0.225458H32.5975C35.0329 0.225458 37 2.02817 37 4.28163V11.9211C37 14.1521 35.0329 16 32.5975 16H30.6304ZM28.5464 11.9211C28.5464 12.9126 29.5063 13.724 30.6304 13.724H32.5975C32.9019 13.724 33.2064 13.6563 33.4641 13.5436L28.5464 5.83657V11.9211ZM29.3894 2.8169L34.6817 11.1324V4.28163C34.6817 3.26763 33.7685 2.4789 32.5975 2.4789H30.6304C30.162 2.4789 29.7407 2.61414 29.3894 2.8169ZM0 0.225458V16H2.34169V4.68734L5.22211 10.0957H6.48671L9.36694 4.68734V16H11.7088V0.225458H9.22662L5.85441 6.55778L2.48223 0.225458H0Z" fill="white"/>
</svg>
