<svg width="20" height="20" viewBox="0 0 20 20" fill="none" xmlns="http://www.w3.org/2000/svg">
<path fill-rule="evenodd" clip-rule="evenodd" d="M18.5 10C18.5 5.30558 14.6944 1.5 10 1.5C5.30558 1.5 1.5 5.30558 1.5 10C1.5 14.6944 5.30558 18.5 10 18.5C14.6944 18.5 18.5 14.6944 18.5 10ZM10 0C15.5228 0 20 4.47715 20 10C20 15.5228 15.5228 20 10 20C4.47715 20 0 15.5228 0 10C0 4.47715 4.47715 0 10 0Z" fill="#F3F3F3"/>
<path d="M8.61304 9.5009V14.9999H7.04004V5.8999H8.56104L10.043 9.0979L11.512 5.8999H13.033V14.9999H11.46V9.5009L10.472 11.6069H9.60104L8.61304 9.5009Z" fill="#F3F3F3"/>
</svg>
