<svg width="29" height="29" viewBox="0 0 29 29" fill="none" xmlns="http://www.w3.org/2000/svg">
	<path fill-rule="evenodd" clip-rule="evenodd" d="M26.5744 14.5013C26.5744 7.82786 21.1666 2.41797 14.4956 2.41797C7.82463 2.41797 2.41675 7.82786 2.41675 14.5013C2.41675 21.1747 7.82463 26.5846 14.4956 26.5846C21.1666 26.5846 26.5744 21.1747 26.5744 14.5013ZM3.62508 14.5013C3.62508 8.49511 8.49208 3.6263 14.4956 3.6263C20.4991 3.6263 25.3661 8.49511 25.3661 14.5013C25.3661 20.5075 20.4991 25.3763 14.4956 25.3763C8.49208 25.3763 3.62508 20.5075 3.62508 14.5013Z" fill="#EBEBEB" />
	<path d="M18.1249 13.0841C18.1249 13.5605 18.0141 14.0007 17.7925 14.4046C17.5805 14.8086 17.2866 15.1296 16.9108 15.3679C16.535 15.5957 16.1255 15.7096 15.6822 15.7096H13.2916V19.3346H12.0833V9.66797H15.6822C16.1255 9.66797 16.535 9.78708 16.9108 10.0253C17.2866 10.2531 17.5805 10.569 17.7925 10.973C18.0141 11.3769 18.1249 11.8171 18.1249 12.2935V13.0841ZM15.6822 14.4979C16.0484 14.4979 16.3567 14.3632 16.6073 14.0939C16.8674 13.8143 16.9975 13.4777 16.9975 13.0841V12.2935C16.9975 11.8999 16.8674 11.5685 16.6073 11.2992C16.3567 11.0196 16.0484 10.8798 15.6822 10.8798H13.2916V14.4979H15.6822Z" fill="#EBEBEB" />
</svg>
