<svg width="29" height="29" viewBox="0 0 29 29" fill="none" xmlns="http://www.w3.org/2000/svg">
<path fill-rule="evenodd" clip-rule="evenodd" d="M14.4956 3.62435C20.4988 3.62435 25.3661 8.49283 25.3661 14.4993C25.3661 20.5059 20.4988 25.3743 14.4956 25.3743C8.4924 25.3743 3.62508 20.5059 3.62508 14.4993C3.62508 8.49283 8.4924 3.62435 14.4956 3.62435ZM14.4956 2.41602C21.1666 2.41602 26.5744 7.82591 26.5744 14.4993C26.5744 21.1728 21.1666 26.5827 14.4956 26.5827C7.82463 26.5827 2.41675 21.1728 2.41675 14.4993C2.41675 7.82591 7.82463 2.41602 14.4956 2.41602ZM14.5139 11.0257L16.9122 15.7077L18.1251 15.147L15.3133 9.66602H13.6869L10.8751 15.147L12.0191 15.7077L14.4174 11.0257H14.5139Z" fill="#EBEBEB"/>
</svg>
