<svg xmlns="http://www.w3.org/2000/svg" width="24" height="24" viewBox="0 0 24 24" fill="none">
<path fill-rule="evenodd" clip-rule="evenodd" d="M23.9926 12C23.9926 5.37218 18.6217 -0.000732422 11.9963 -0.000732422C5.37092 -0.000732422 0 5.37218 0 12C0 18.6278 5.37092 24.0008 11.9963 24.0008C18.6217 24.0008 23.9926 18.6278 23.9926 12ZM13.3129 15.0257C13.1072 15.1697 12.8758 15.2417 12.6186 15.2417H11.3844C11.0449 15.2417 10.7518 15.1234 10.5049 14.8868C10.2684 14.6399 10.1501 14.3468 10.1501 14.0074V9.87255L13.3129 15.0257ZM8.97751 7.38856C8.73065 7.81028 8.60723 8.27313 8.60723 8.77713V14.0074C8.60723 14.5114 8.73065 14.9794 8.97751 15.4114C9.23465 15.8331 9.57408 16.1725 9.99579 16.4297C10.4175 16.6765 10.8804 16.7999 11.3844 16.7999H12.6186C13.1226 16.7999 13.5855 16.6765 14.0072 16.4297C14.4392 16.1725 14.7786 15.8331 15.0255 15.4114C15.2723 14.9794 15.3958 14.5114 15.3958 14.0074V8.77713C15.3958 8.27313 15.2723 7.81028 15.0255 7.38856C14.7786 6.95657 14.4392 6.61714 14.0072 6.37028C13.5855 6.12343 13.1226 6 12.6186 6H11.3844C10.8804 6 10.4175 6.12343 9.99579 6.37028C9.57408 6.61714 9.23465 6.95657 8.97751 7.38856ZM13.8529 8.77713V12.9274L10.6746 7.75885C10.8804 7.61485 11.1169 7.54285 11.3844 7.54285H12.6186C12.9683 7.54285 13.2615 7.66113 13.4981 7.8977C13.7346 8.13427 13.8529 8.42741 13.8529 8.77713Z" fill="#EBEBEB"/>
</svg>