<svg width="1426" height="325" viewBox="0 0 1426 325" fill="none" xmlns="http://www.w3.org/2000/svg">
<g clip-path="url(#clip0_6645_103753)">
<rect width="1426" height="325" fill="#C1C5DD"/>
<g opacity="0.3">
<path d="M1427.02 -763L-462 327.628" stroke="#6B8195" stroke-width="0.472816" stroke-miterlimit="10"/>
<path d="M1440.91 -738.945L-448.11 351.683" stroke="#6B8195" stroke-width="0.472816" stroke-miterlimit="10"/>
<path d="M1454.8 -714.889L-434.22 375.74" stroke="#6B8195" stroke-width="0.472816" stroke-miterlimit="10"/>
<path d="M1468.69 -690.83L-420.338 399.793" stroke="#6B8195" stroke-width="0.472816" stroke-miterlimit="10"/>
<path d="M1482.57 -666.779L-406.448 423.843" stroke="#6B8195" stroke-width="0.472816" stroke-miterlimit="10"/>
<path d="M1496.46 -642.729L-392.561 447.9" stroke="#6B8195" stroke-width="0.472816" stroke-miterlimit="10"/>
<path d="M1510.35 -618.668L-378.67 471.96" stroke="#6B8195" stroke-width="0.472816" stroke-miterlimit="10"/>
<path d="M1524.24 -594.617L-364.785 496.011" stroke="#6B8195" stroke-width="0.472816" stroke-miterlimit="10"/>
<path d="M1538.12 -570.555L-350.897 520.068" stroke="#6B8195" stroke-width="0.472816" stroke-miterlimit="10"/>
<path d="M1552.01 -546.502L-337.007 544.121" stroke="#6B8195" stroke-width="0.472816" stroke-miterlimit="10"/>
<path d="M1565.9 -522.455L-323.119 568.173" stroke="#6B8195" stroke-width="0.472816" stroke-miterlimit="10"/>
<path d="M1579.79 -498.395L-309.229 592.234" stroke="#6B8195" stroke-width="0.472816" stroke-miterlimit="10"/>
<path d="M1593.67 -474.34L-295.345 616.289" stroke="#6B8195" stroke-width="0.472816" stroke-miterlimit="10"/>
<path d="M1607.56 -450.285L-281.456 640.343" stroke="#6B8195" stroke-width="0.472816" stroke-miterlimit="10"/>
<path d="M1621.45 -426.229L-267.567 664.394" stroke="#6B8195" stroke-width="0.472816" stroke-miterlimit="10"/>
<path d="M1635.34 -402.176L-253.678 688.452" stroke="#6B8195" stroke-width="0.472816" stroke-miterlimit="10"/>
<path d="M1649.23 -378.123L-239.796 712.505" stroke="#6B8195" stroke-width="0.472816" stroke-miterlimit="10"/>
<path d="M1663.12 -354.066L-225.904 736.562" stroke="#6B8195" stroke-width="0.472816" stroke-miterlimit="10"/>
<path d="M1677.01 -330.012L-212.013 760.617" stroke="#6B8195" stroke-width="0.472816" stroke-miterlimit="10"/>
<path d="M1690.89 -305.953L-198.126 784.67" stroke="#6B8195" stroke-width="0.472816" stroke-miterlimit="10"/>
<path d="M1704.78 -281.904L-184.235 808.724" stroke="#6B8195" stroke-width="0.472816" stroke-miterlimit="10"/>
<path d="M1718.67 -257.85L-170.354 832.779" stroke="#6B8195" stroke-width="0.472816" stroke-miterlimit="10"/>
<path d="M1732.56 -233.793L-156.462 856.835" stroke="#6B8195" stroke-width="0.472816" stroke-miterlimit="10"/>
<path d="M1746.44 -209.738L-142.574 880.89" stroke="#6B8195" stroke-width="0.472816" stroke-miterlimit="10"/>
<path d="M1760.33 -185.682L-128.684 904.941" stroke="#6B8195" stroke-width="0.472816" stroke-miterlimit="10"/>
<path d="M1774.22 -161.631L-114.801 928.997" stroke="#6B8195" stroke-width="0.472816" stroke-miterlimit="10"/>
<path d="M1788.11 -137.574L-100.91 953.054" stroke="#6B8195" stroke-width="0.472816" stroke-miterlimit="10"/>
<path d="M1802 -113.521L-87.0229 977.107" stroke="#6B8195" stroke-width="0.472816" stroke-miterlimit="10"/>
<path d="M1815.89 -89.4609L-73.1323 1001.17" stroke="#6B8195" stroke-width="0.472816" stroke-miterlimit="10"/>
<path d="M1829.77 -65.4062L-59.251 1025.22" stroke="#6B8195" stroke-width="0.472816" stroke-miterlimit="10"/>
<path d="M1843.66 -41.3574L-45.3608 1049.27" stroke="#6B8195" stroke-width="0.472816" stroke-miterlimit="10"/>
<path d="M1857.55 -17.2969L-31.4731 1073.33" stroke="#6B8195" stroke-width="0.472816" stroke-miterlimit="10"/>
<path d="M1871.44 6.75391L-17.583 1097.38" stroke="#6B8195" stroke-width="0.472816" stroke-miterlimit="10"/>
<path d="M1885.33 30.8125L-3.69092 1121.44" stroke="#6B8195" stroke-width="0.472816" stroke-miterlimit="10"/>
<path d="M1899.22 54.8672L10.1904 1145.49" stroke="#6B8195" stroke-width="0.472816" stroke-miterlimit="10"/>
<path d="M1913.1 78.916L24.0786 1169.54" stroke="#6B8195" stroke-width="0.472816" stroke-miterlimit="10"/>
<path d="M1926.99 102.975L37.9707 1193.6" stroke="#6B8195" stroke-width="0.472816" stroke-miterlimit="10"/>
<path d="M1940.88 127.031L51.8608 1217.66" stroke="#6B8195" stroke-width="0.472816" stroke-miterlimit="10"/>
<path d="M1954.77 151.088L65.7422 1241.72" stroke="#6B8195" stroke-width="0.472816" stroke-miterlimit="10"/>
<path d="M1968.65 175.139L79.6343 1265.76" stroke="#6B8195" stroke-width="0.472816" stroke-miterlimit="10"/>
<path d="M79.6343 -763L1968.65 327.628" stroke="#6B8195" stroke-width="0.472816" stroke-miterlimit="10"/>
<path d="M65.7422 -738.945L1954.77 351.683" stroke="#6B8195" stroke-width="0.472816" stroke-miterlimit="10"/>
<path d="M51.8608 -714.889L1940.88 375.74" stroke="#6B8195" stroke-width="0.472816" stroke-miterlimit="10"/>
<path d="M37.9707 -690.83L1926.99 399.793" stroke="#6B8195" stroke-width="0.472816" stroke-miterlimit="10"/>
<path d="M24.0786 -666.779L1913.1 423.843" stroke="#6B8195" stroke-width="0.472816" stroke-miterlimit="10"/>
<path d="M10.1904 -642.729L1899.22 447.9" stroke="#6B8195" stroke-width="0.472816" stroke-miterlimit="10"/>
<path d="M-3.69092 -618.668L1885.33 471.96" stroke="#6B8195" stroke-width="0.472816" stroke-miterlimit="10"/>
<path d="M-17.583 -594.617L1871.44 496.011" stroke="#6B8195" stroke-width="0.472816" stroke-miterlimit="10"/>
<path d="M-31.4731 -570.555L1857.55 520.068" stroke="#6B8195" stroke-width="0.472816" stroke-miterlimit="10"/>
<path d="M-45.3608 -546.502L1843.66 544.121" stroke="#6B8195" stroke-width="0.472816" stroke-miterlimit="10"/>
<path d="M-59.251 -522.455L1829.77 568.173" stroke="#6B8195" stroke-width="0.472816" stroke-miterlimit="10"/>
<path d="M-73.1323 -498.395L1815.89 592.234" stroke="#6B8195" stroke-width="0.472816" stroke-miterlimit="10"/>
<path d="M-87.0229 -474.34L1802 616.289" stroke="#6B8195" stroke-width="0.472816" stroke-miterlimit="10"/>
<path d="M-100.91 -450.285L1788.11 640.343" stroke="#6B8195" stroke-width="0.472816" stroke-miterlimit="10"/>
<path d="M-114.801 -426.229L1774.22 664.394" stroke="#6B8195" stroke-width="0.472816" stroke-miterlimit="10"/>
<path d="M-128.684 -402.176L1760.33 688.452" stroke="#6B8195" stroke-width="0.472816" stroke-miterlimit="10"/>
<path d="M-142.574 -378.123L1746.44 712.505" stroke="#6B8195" stroke-width="0.472816" stroke-miterlimit="10"/>
<path d="M-156.462 -354.066L1732.56 736.562" stroke="#6B8195" stroke-width="0.472816" stroke-miterlimit="10"/>
<path d="M-170.354 -330.012L1718.67 760.617" stroke="#6B8195" stroke-width="0.472816" stroke-miterlimit="10"/>
<path d="M-184.235 -305.953L1704.78 784.67" stroke="#6B8195" stroke-width="0.472816" stroke-miterlimit="10"/>
<path d="M-198.126 -281.904L1690.89 808.724" stroke="#6B8195" stroke-width="0.472816" stroke-miterlimit="10"/>
<path d="M-212.013 -257.85L1677.01 832.779" stroke="#6B8195" stroke-width="0.472816" stroke-miterlimit="10"/>
<path d="M-225.904 -233.793L1663.12 856.835" stroke="#6B8195" stroke-width="0.472816" stroke-miterlimit="10"/>
<path d="M-239.796 -209.738L1649.23 880.89" stroke="#6B8195" stroke-width="0.472816" stroke-miterlimit="10"/>
<path d="M-253.678 -185.682L1635.34 904.941" stroke="#6B8195" stroke-width="0.472816" stroke-miterlimit="10"/>
<path d="M-267.567 -161.631L1621.45 928.997" stroke="#6B8195" stroke-width="0.472816" stroke-miterlimit="10"/>
<path d="M-281.456 -137.574L1607.56 953.054" stroke="#6B8195" stroke-width="0.472816" stroke-miterlimit="10"/>
<path d="M-295.345 -113.521L1593.67 977.107" stroke="#6B8195" stroke-width="0.472816" stroke-miterlimit="10"/>
<path d="M-309.229 -89.4609L1579.79 1001.17" stroke="#6B8195" stroke-width="0.472816" stroke-miterlimit="10"/>
<path d="M-323.119 -65.4062L1565.9 1025.22" stroke="#6B8195" stroke-width="0.472816" stroke-miterlimit="10"/>
<path d="M-337.007 -41.3574L1552.01 1049.27" stroke="#6B8195" stroke-width="0.472816" stroke-miterlimit="10"/>
<path d="M-350.897 -17.2969L1538.12 1073.33" stroke="#6B8195" stroke-width="0.472816" stroke-miterlimit="10"/>
<path d="M-364.785 6.75391L1524.24 1097.38" stroke="#6B8195" stroke-width="0.472816" stroke-miterlimit="10"/>
<path d="M-378.67 30.8125L1510.35 1121.44" stroke="#6B8195" stroke-width="0.472816" stroke-miterlimit="10"/>
<path d="M-392.561 54.8672L1496.46 1145.49" stroke="#6B8195" stroke-width="0.472816" stroke-miterlimit="10"/>
<path d="M-406.448 78.916L1482.57 1169.54" stroke="#6B8195" stroke-width="0.472816" stroke-miterlimit="10"/>
<path d="M-420.338 102.975L1468.69 1193.6" stroke="#6B8195" stroke-width="0.472816" stroke-miterlimit="10"/>
<path d="M-434.22 127.031L1454.8 1217.66" stroke="#6B8195" stroke-width="0.472816" stroke-miterlimit="10"/>
<path d="M-448.11 151.088L1440.91 1241.72" stroke="#6B8195" stroke-width="0.472816" stroke-miterlimit="10"/>
<path d="M-462 175.139L1427.02 1265.76" stroke="#6B8195" stroke-width="0.472816" stroke-miterlimit="10"/>
</g>
<path d="M1308.75 139.006L1280.97 155.043L1308.75 171.08L1336.52 155.043L1308.75 139.006Z" fill="#EFF3F6"/>
<path d="M1308.75 171.078V203.153L1336.53 187.116V155.041L1308.75 171.078Z" fill="#6B8195"/>
<path d="M1308.75 171.078L1280.97 155.041V187.116L1308.75 203.153V171.078Z" fill="#DAE2E8"/>
<path d="M1280.78 28L1253 44.0373L1280.78 60.0746L1308.55 44.0373L1280.78 28Z" fill="#0F848F"/>
<path d="M1280.78 59.8127V91.8872L1308.55 75.8499V43.7754L1280.78 59.8127Z" fill="#156168"/>
<path d="M1280.78 59.8127L1253 43.7754V75.8499L1280.78 91.8872V59.8127Z" fill="#106B70"/>
<path d="M1141.93 171.635L1114.15 187.672L1141.93 203.709L1169.7 187.672L1141.93 171.635Z" stroke="#676767" stroke-width="0.532381" stroke-linejoin="round"/>
<path d="M1141.93 203.707V235.782L1169.7 219.744V187.67L1141.93 203.707Z" stroke="#676767" stroke-width="0.532381" stroke-linejoin="round"/>
<path d="M1141.93 203.707L1114.15 187.67V219.744L1141.93 235.782V203.707Z" stroke="#676767" stroke-width="0.532381" stroke-linejoin="round"/>
<path d="M919.779 139L892 155.037L919.779 171.075L947.552 155.037L919.779 139Z" stroke="#676767" stroke-width="0.532381" stroke-linejoin="round"/>
<path d="M919.78 171.074V203.149L947.553 187.112V155.037L919.78 171.074Z" stroke="#676767" stroke-width="0.532381" stroke-linejoin="round"/>
<path d="M919.779 171.074L892 155.037V187.112L919.779 203.149V171.074Z" stroke="#676767" stroke-width="0.532381" stroke-linejoin="round"/>
<path d="M836.567 155.225L808.794 171.262L836.567 187.299L864.345 171.262L836.567 155.225Z" fill="#0082FF"/>
<path d="M836.568 187.299V219.374L864.347 203.336V171.262L836.568 187.299Z" fill="#0462AF"/>
<path d="M836.567 187.299L808.794 171.262V203.336L836.567 219.374V187.299Z" fill="#0075D6"/>
<path d="M1197.84 171.18L1170.06 187.217L1197.84 203.254L1225.61 187.217L1197.84 171.18Z" fill="#08F7BC"/>
<path d="M1197.84 203.252V235.327L1225.61 219.289V187.215L1197.84 203.252Z" fill="#05D19C"/>
<path d="M1197.84 203.252L1170.06 187.215V219.289L1197.84 235.327V203.252Z" fill="#17E5AF"/>
<path d="M1003.41 187.496L975.63 203.533L1003.41 219.571L1031.18 203.533L1003.41 187.496Z" stroke="#636363" stroke-width="0.532381" stroke-linejoin="round"/>
<path d="M1003.41 219.569V251.643L1031.18 235.606V203.531L1003.41 219.569Z" stroke="#636363" stroke-width="0.532381" stroke-linejoin="round"/>
<path d="M1003.41 219.569L975.63 203.531V235.606L1003.41 251.643V219.569Z" stroke="#636363" stroke-width="0.532381" stroke-linejoin="round"/>
<path d="M1059.06 60.9766L1034.71 75.0313L1059.06 89.089L1083.41 75.0313L1059.06 60.9766Z" fill="#08F7BC"/>
<path d="M1059.06 89.089V117.205L1034.71 103.147V75.0312L1059.06 89.089Z" fill="#17E5AF"/>
<path d="M1083.41 75.0312L1059.06 89.089V117.205L1083.41 103.147V75.0312Z" fill="#05D19C"/>
<path d="M1028.63 78.5449L1059.06 96.1179L1089.5 78.5449L1113.84 92.6027L1059.06 124.23L1004.28 92.6027L1028.63 78.5449Z" fill="#EFF3F6"/>
<path d="M1028.63 169.916L1059.06 152.346L1028.63 134.773V169.916Z" fill="#B5C4D1"/>
<path d="M1089.75 134.773L1059.06 152.346L1089.75 169.916V134.773Z" fill="#DAE2E8"/>
<path d="M1059.06 131.262L1034.71 145.316L1059.06 159.374L1083.41 145.316L1059.06 131.262Z" fill="#0082FF"/>
<path d="M1059.06 159.374V187.49L1034.71 173.432V145.316L1059.06 159.374Z" fill="#0075D6"/>
<path d="M1083.41 145.316L1059.06 159.374V187.49L1083.41 173.432V145.316Z" fill="#0462AF"/>
<path d="M1028.63 169.917V134.774L1059.06 152.347V124.231L1004.28 92.6035V155.862L1028.63 169.917Z" fill="#DAE2E8"/>
<path d="M1059.06 152.347L1089.5 134.774V169.917L1113.84 155.862V92.6035L1059.06 124.231V152.347Z" fill="#B5C4D1"/>
<path d="M1083.25 74.9458H1034.91V44.918H1083.25V74.9458Z" fill="url(#paint0_linear_6645_103753)"/>
<g filter="url(#filter0_f_6645_103753)">
<ellipse cx="122.5" cy="198.5" rx="478.5" ry="580.5" fill="#C1C5DD"/>
</g>
</g>
<defs>
<filter id="filter0_f_6645_103753" x="-950" y="-976" width="2145" height="2349" filterUnits="userSpaceOnUse" color-interpolation-filters="sRGB">
<feFlood flood-opacity="0" result="BackgroundImageFix"/>
<feBlend mode="normal" in="SourceGraphic" in2="BackgroundImageFix" result="shape"/>
<feGaussianBlur stdDeviation="297" result="effect1_foregroundBlur_6645_103753"/>
</filter>
<linearGradient id="paint0_linear_6645_103753" x1="1059.08" y1="74.7621" x2="1059.08" y2="46.2033" gradientUnits="userSpaceOnUse">
<stop stop-color="#08F7BC"/>
<stop offset="1" stop-color="#08F7BC" stop-opacity="0"/>
</linearGradient>
<clipPath id="clip0_6645_103753">
<rect width="1426" height="325" fill="white"/>
</clipPath>
</defs>
</svg>
