<svg width="156" height="156" viewBox="0 0 156 156" fill="none" xmlns="http://www.w3.org/2000/svg">
<path d="M73.2897 18.0176L47.4515 32.9327L73.2897 47.8511L99.1282 32.9327L73.2897 18.0176Z" fill="#08F7BC"/>
<path d="M73.2897 47.8481V77.685L47.4515 62.7666V32.9297L73.2897 47.8481Z" fill="#17E5AF"/>
<path d="M99.1286 32.9297L73.2904 47.8481V77.685L99.1286 62.7666V32.9297Z" fill="#05D19C"/>
<path d="M40.9919 36.6602L73.2898 55.309L105.588 36.6602L131.426 51.5786L73.2898 85.1426L15.1534 51.5786L40.9919 36.6602Z" fill="#EFF3F6"/>
<path d="M40.9924 133.627L73.2905 114.981L40.9924 96.332V133.627Z" fill="#B5C4D1"/>
<path d="M105.856 96.332L73.2904 114.981L105.856 133.627V96.332Z" fill="#DAE2E8"/>
<path d="M73.2897 92.6055L47.4515 107.521L73.2897 122.439L99.1282 107.521L73.2897 92.6055Z" fill="#0082FF"/>
<path d="M73.2897 122.438V152.275L47.4515 137.356V107.52L73.2897 122.438Z" fill="#0075D6"/>
<path d="M99.1286 107.52L73.2904 122.438V152.275L99.1286 137.356V107.52Z" fill="#0462AF"/>
<path d="M40.9919 133.627V96.3321L73.2898 114.981V85.144L15.1534 51.5801V118.712L40.9919 133.627Z" fill="#DAE2E8"/>
<path d="M73.2904 114.981L105.588 96.3321V133.627L131.427 118.712V51.5801L73.2904 85.144V114.981Z" fill="#B5C4D1"/>
<path d="M98.9619 32.8389H47.6574V0.972656H98.9619V32.8389Z" fill="url(#paint0_linear_3554_25739)"/>
<defs>
<linearGradient id="paint0_linear_3554_25739" x1="73.3095" y1="32.6441" x2="73.3095" y2="2.33666" gradientUnits="userSpaceOnUse">
<stop stop-color="#08F7BC"/>
<stop offset="1" stop-color="#08F7BC" stop-opacity="0"/>
</linearGradient>
</defs>
</svg>
